<?xml version="1.0" encoding="UTF-8"?><svg id="Layer_2" xmlns="http://www.w3.org/2000/svg" viewBox="0 0 207.22 143.6"><defs><style>.cls-1{stroke-width:0px;}</style></defs><g id="Layer_1-2"><path class="cls-1" d="m41.17,51.95c0-17.47-23.94-13.88-23.94-19.27,0-1.7,1.56-2.65,4.09-2.65,3.21,0,5.16,1.7,6.52,4.16l10.42-5.45v3.75h7.79v16.72c0,13.22,5.55,18.8,24.63,16.91v-12.84c-6.42.38-10.03,0-10.03-4.06v-16.72h10.03v-13.6h-10.03V5.67l-14.6,4.25v8.97h-7.79v6.02c-4.18-4.86-10.23-7.34-16.94-7.34-10.12,0-19.08,5.2-19.08,15.49,0,16.34,23.94,13.6,23.94,18.8,0,1.89-1.75,2.93-5.25,2.93-4.28,0-7.01-1.98-8.27-5.57L0,56.2c3.8,7.65,11.19,11.24,20.93,11.24,10.51,0,20.24-4.63,20.24-15.49"/><path class="cls-1" d="m103.71,33.94c-.89,2.66-1.41,5.53-1.41,8.56,0,14.07,10.51,24.94,23.26,24.94,6.52,0,11.29-2.17,14.5-5.76v4.44h14.6V18.89h-14.6v4.44c-3.21-3.59-7.98-5.76-14.5-5.76-9.48,0-17.71,6.01-21.32,14.87v-14.49c-6.13,0-12.65,3.02-14.6,9.35v-8.4h-14.6v101.8h14.53V44.77c0-9.08,8.14-11.56,14.14-10.83m24.77-2.96c6.72,0,11.58,4.44,11.58,11.52s-4.87,11.52-11.58,11.52-11.58-4.44-11.58-11.52,4.87-11.52,11.58-11.52"/><polygon class="cls-1" points="175.1 45.24 190.67 66.12 207.22 66.12 189.02 42.5 206.73 18.89 189.7 18.89 175.1 39.57 175.1 0 160.5 0 160.5 66.12 175.1 66.12 175.1 45.24"/><path class="cls-1" d="m48.3,72.15c-6.52,0-11.29,2.17-14.5,5.76v-4.44h-14.6v69.74h14.6v-26.95c3.21,3.59,7.98,5.76,14.5,5.76,12.75,0,23.26-10.86,23.26-24.93s-10.51-24.93-23.26-24.93m-2.92,36.46c-6.72,0-11.58-4.44-11.58-11.52s4.87-11.52,11.58-11.52,11.58,4.44,11.58,11.52-4.87,11.52-11.58,11.52"/><path class="cls-1" d="m130.74,77.91c-3.21-3.59-7.98-5.76-14.5-5.76-12.75,0-23.26,10.86-23.26,24.93s10.51,24.94,23.26,24.94c6.52,0,11.29-2.17,14.5-5.76v4.44h14.6v-47.23h-14.6v4.44Zm-11.58,30.7c-6.72,0-11.58-4.44-11.58-11.52s4.87-11.52,11.58-11.52,11.58,4.44,11.58,11.52-4.87,11.52-11.58,11.52"/><path class="cls-1" d="m179.7,72.15c-6.42,0-11.29,2.27-13.92,5.76v-4.44h-14.6v47.23h14.6v-25.79c0-6.71,3.7-9.73,9.05-9.73,4.67,0,8.47,2.74,8.47,8.6v26.92h14.6v-29c0-12.75-8.37-19.55-18.2-19.55"/><path class="cls-1" d="m46.86,137.55c.89.57,1.34,1.39,1.34,2.46,0,.94-.34,1.71-1.01,2.3-.67.59-1.51.89-2.5.89h-4.57v-10.88h4.26c.97,0,1.79.29,2.45.86.66.57.99,1.32.99,2.25,0,.87-.32,1.58-.95,2.13Zm-2.49-2.91h-1.77v1.93h1.77c.28,0,.51-.09.68-.27.18-.18.26-.41.26-.69s-.09-.51-.26-.69c-.18-.18-.4-.27-.68-.27Zm.31,6.22c.31,0,.56-.1.75-.29s.28-.44.28-.75-.09-.56-.28-.75c-.19-.19-.43-.29-.75-.29h-2.08v2.08h2.08Z"/><path class="cls-1" d="m58.64,141.78c-1.1,1.09-2.43,1.63-4.01,1.63s-2.91-.54-4.01-1.63c-1.1-1.09-1.65-2.43-1.65-4.02s.55-2.94,1.65-4.02c1.1-1.09,2.43-1.63,4.01-1.63s2.91.54,4.01,1.63c1.1,1.09,1.65,2.43,1.65,4.02s-.55,2.94-1.65,4.02Zm-6.27-1.69c.61.6,1.36.9,2.26.9s1.65-.3,2.26-.9c.61-.6.91-1.38.91-2.33s-.3-1.73-.91-2.33c-.61-.6-1.36-.9-2.26-.9s-1.65.3-2.26.9c-.61.6-.91,1.38-.91,2.33s.3,1.73.91,2.33Z"/><path class="cls-1" d="m68.81,142.4c-.79.67-1.79,1.01-3.01,1.01s-2.23-.34-3.01-1.01c-.79-.67-1.18-1.58-1.18-2.72v-7.36h2.49v7.15c0,1.02.57,1.52,1.71,1.52s1.71-.51,1.71-1.52v-7.15h2.49v7.36c0,1.14-.39,2.05-1.18,2.72Z"/><path class="cls-1" d="m74,143.19l-3-10.88h2.61l1.88,7.61,2.1-7.61h2.02l2.1,7.61,1.88-7.61h2.61l-3,10.88h-2.83l-1.77-6.42-1.77,6.42h-2.83Z"/><path class="cls-1" d="m100.46,142.48l-1.94,1.12-.96-1.04c-.82.57-1.76.85-2.81.85-1.14,0-2.07-.3-2.8-.89-.73-.59-1.09-1.39-1.09-2.39,0-.63.15-1.22.46-1.77.31-.55.73-1,1.28-1.35-.3-.52-.45-1.09-.45-1.72,0-.92.32-1.68.97-2.28.65-.6,1.49-.9,2.52-.9.81,0,1.52.2,2.14.61s1.1.99,1.43,1.77l-2.13,1.23c-.3-.79-.77-1.18-1.41-1.18-.31,0-.56.08-.75.26s-.29.39-.29.66c0,.19.04.38.13.57s.18.34.27.46c.09.11.24.29.45.51l2,2.22c.22-.5.39-1.07.51-1.71l2.08,1.18c-.23.85-.56,1.61-.99,2.28l1.37,1.52Zm-5.52-1.34c.4,0,.77-.08,1.09-.25l-1.99-2.14-.09-.09c-.38.31-.57.72-.57,1.21,0,.38.13.69.39.92.26.23.65.35,1.18.35Z"/><path class="cls-1" d="m110.78,143.41c-1.63,0-2.98-.54-4.05-1.62-1.07-1.08-1.61-2.43-1.61-4.03s.54-2.95,1.61-4.03c1.07-1.08,2.42-1.62,4.05-1.62.97,0,1.87.23,2.7.68s1.48,1.06,1.96,1.84l-2.14,1.24c-.24-.42-.58-.75-1.03-.99-.45-.23-.94-.35-1.49-.35-.96,0-1.73.3-2.31.89s-.86,1.37-.86,2.35.29,1.76.86,2.35c.57.59,1.34.89,2.31.89.55,0,1.05-.12,1.5-.36.45-.24.79-.56,1.02-.98l2.14,1.24c-.47.78-1.11,1.39-1.94,1.84-.83.45-1.74.68-2.72.68Z"/><path class="cls-1" d="m125.96,141.78c-1.1,1.09-2.43,1.63-4.01,1.63s-2.91-.54-4.01-1.63c-1.1-1.09-1.65-2.43-1.65-4.02s.55-2.94,1.65-4.02c1.1-1.09,2.43-1.63,4.01-1.63s2.91.54,4.01,1.63c1.1,1.09,1.65,2.43,1.65,4.02s-.55,2.94-1.65,4.02Zm-6.27-1.69c.61.6,1.36.9,2.26.9s1.65-.3,2.26-.9c.61-.6.91-1.38.91-2.33s-.3-1.73-.91-2.33c-.61-.6-1.36-.9-2.26-.9s-1.65.3-2.26.9c-.61.6-.91,1.38-.91,2.33s.3,1.73.91,2.33Z"/><path class="cls-1" d="m138.21,141.78c-1.1,1.09-2.43,1.63-4.01,1.63s-2.91-.54-4.01-1.63c-1.1-1.09-1.65-2.43-1.65-4.02s.55-2.94,1.65-4.02c1.1-1.09,2.43-1.63,4.01-1.63s2.91.54,4.01,1.63c1.1,1.09,1.65,2.43,1.65,4.02s-.55,2.94-1.65,4.02Zm-6.27-1.69c.61.6,1.36.9,2.26.9s1.65-.3,2.26-.9c.61-.6.91-1.38.91-2.33s-.3-1.73-.91-2.33c-.61-.6-1.36-.9-2.26-.9s-1.65.3-2.26.9c-.61.6-.91,1.38-.91,2.33s.3,1.73.91,2.33Zm1.61-8.89c-.23.23-.5.34-.82.34s-.6-.11-.82-.34-.34-.5-.34-.82.11-.59.34-.82.5-.34.82-.34.6.11.82.34.34.5.34.82-.11.6-.34.82Zm2.95,0c-.23.23-.5.34-.82.34s-.6-.11-.82-.34-.34-.5-.34-.82.11-.59.34-.82.5-.34.82-.34.6.11.82.34.34.5.34.82-.11.6-.34.82Z"/><path class="cls-1" d="m146.97,143.19l-2.05-3.57h-1.18v3.57h-2.49v-10.88h4.35c1.04,0,1.92.36,2.64,1.09.72.72,1.09,1.61,1.09,2.64,0,.66-.18,1.28-.55,1.84s-.85,1-1.45,1.31l2.32,3.99h-2.67Zm-3.23-8.55v2.8h1.86c.34,0,.63-.13.88-.4.24-.27.37-.6.37-.99s-.12-.72-.37-1c-.24-.27-.54-.4-.88-.4h-1.86Z"/><path class="cls-1" d="m155.16,132.32c1.5,0,2.76.52,3.77,1.56,1.01,1.04,1.52,2.33,1.52,3.88s-.51,2.84-1.52,3.88-2.27,1.56-3.77,1.56h-4.35v-10.88h4.35Zm0,8.48c.86,0,1.56-.28,2.09-.83.53-.55.8-1.29.8-2.21s-.27-1.66-.8-2.21c-.53-.55-1.23-.83-2.09-.83h-1.86v6.09h1.86Z"/><path class="cls-1" d="m161.84,132.32h2.49v10.88h-2.49v-10.88Z"/><path class="cls-1" d="m172.25,132.32h2.49v10.88h-1.86l-4.2-5.9v5.9h-2.49v-10.88h1.86l4.2,5.9v-5.9Z"/><path class="cls-1" d="m183.51,143.19l-.54-1.71h-4.04l-.54,1.71h-2.72l3.7-10.88h3.17l3.7,10.88h-2.72Zm-3.84-4.04h2.55l-1.27-3.99-1.27,3.99Z"/><path class="cls-1" d="m194.47,132.32v2.39h-2.8v8.48h-2.49v-8.48h-2.8v-2.39h8.08Z"/><path class="cls-1" d="m195.55,132.32h2.49v10.88h-2.49v-10.88Z"/><path class="cls-1" d="m202.39,140.8h4.35v2.39h-6.84v-10.88h6.76v2.39h-4.27v1.8h3.88v2.36h-3.88v1.93Z"/></g></svg>