<svg width="211" height="420" viewBox="0 0 211 420" fill="none" xmlns="http://www.w3.org/2000/svg">
<path d="M0.666667 6C0.666667 8.94552 3.05448 11.3333 6 11.3333C8.94552 11.3333 11.3333 8.94552 11.3333 6C11.3333 3.05448 8.94552 0.666667 6 0.666667C3.05448 0.666667 0.666667 3.05448 0.666667 6ZM207 201L207.5 201.866L210.733 200H207V201ZM5.00021 6.02051C5.67021 38.6831 16.5656 87.648 47.0992 128.474C77.6681 169.347 127.879 202 207 202V200C128.521 200 78.8986 167.653 48.7008 127.276C18.4677 86.852 7.66312 38.3169 6.99979 5.97949L5.00021 6.02051ZM206.5 200.134C107.627 257.207 90.3219 369.885 94.0028 419.075L95.9972 418.925C92.3447 370.115 109.573 258.393 207.5 201.866L206.5 200.134Z" fill="#02A54F"/>
</svg>
