<svg width="240" height="290" viewBox="0 0 240 290" fill="none" xmlns="http://www.w3.org/2000/svg">
<path d="M229.295 289.707C229.685 290.098 230.319 290.098 230.709 289.707L237.073 283.343C237.464 282.953 237.464 282.319 237.073 281.929C236.683 281.538 236.049 281.538 235.659 281.929L230.002 287.586L224.345 281.929C223.955 281.538 223.321 281.538 222.931 281.929C222.54 282.319 222.54 282.953 222.931 283.343L229.295 289.707ZM237.013 1.14495C240.796 26.9704 229.927 66.9435 201.983 100.485C174.079 133.977 129.188 161 65.0001 161V163C129.812 163 175.256 135.689 203.519 101.765C231.742 67.8898 242.875 27.363 238.991 0.85505L237.013 1.14495ZM65.0001 161C23.2995 161 2.74563 139.473 2.62505 118.494C2.50455 97.5281 22.7936 76 65.0001 76V74C22.2065 74 0.495569 95.9719 0.625081 118.506C0.754519 141.027 22.7007 163 65.0001 163V161ZM65.0001 76C96.8254 76 137.801 85.2008 170.815 116.352C203.812 147.488 229.002 200.693 229.002 289H231.002C231.002 200.307 205.691 146.512 172.187 114.898C138.7 83.2992 97.1747 74 65.0001 74V76Z" fill="#02A54F"/>
</svg>
