<svg width="80" height="80" viewBox="0 0 80 80" fill="none" xmlns="http://www.w3.org/2000/svg">
<path d="M31.9979 12.7988C27.7629 12.7988 24.3169 16.2428 24.3169 20.4788C24.3169 24.7148 27.7619 28.1598 31.9979 28.1598C36.2339 28.1598 39.6779 24.7148 39.6779 20.4788C39.6779 16.2428 36.2329 12.7988 31.9979 12.7988ZM30.7179 25.4177C28.9269 24.9517 27.5259 23.5508 27.0599 21.7598H30.7179V25.4177ZM30.7179 19.1987H27.0599C27.5259 17.4077 28.9269 16.0078 30.7179 15.5408V19.1987ZM33.2779 25.4177V21.7598H36.9359C36.4699 23.5498 35.0689 24.9517 33.2779 25.4177ZM33.2779 19.1987V15.5408C35.0689 16.0078 36.4689 17.4077 36.9359 19.1987H33.2779Z" fill="#02A54F"/>
<path d="M70.3971 55.0391C68.2791 55.0391 66.5571 56.762 66.5571 58.879C66.5571 60.996 68.2791 62.719 70.3971 62.719C72.5141 62.719 74.2371 60.996 74.2371 58.879C74.2371 56.762 72.5151 55.0391 70.3971 55.0391ZM70.3971 60.158C69.6901 60.158 69.1161 59.585 69.1161 58.879C69.1161 58.172 69.6901 57.599 70.3971 57.599C71.1021 57.599 71.6761 58.172 71.6761 58.879C71.6771 59.585 71.1021 60.158 70.3971 60.158Z" fill="#02A54F"/>
<path d="M66.558 46.079C64.755 46.079 63.024 46.4771 61.437 47.1741V33.2791H63.998V32C63.998 14.355 49.644 0 31.999 0C14.354 0 0 14.355 0 32V33.2791H2.56V79.3571H61.438V70.584C63.025 71.279 64.756 71.678 66.559 71.678C73.616 71.678 79.358 65.936 79.358 58.879C79.356 51.821 73.614 46.079 66.558 46.079ZM16.638 76.798H5.11798V33.2781H8.95801H10.238H48.637V30.717H10.297C10.348 29.971 10.426 29.2 10.565 28.369L8.04102 27.946C7.87802 28.92 7.77002 29.836 7.71802 30.717H2.586C3.259 15.076 16.194 2.55896 31.998 2.55896C47.802 2.55896 60.737 15.077 61.409 30.717H56.283C55.616 17.901 44.977 7.67798 31.998 7.67798C21.237 7.67798 11.636 14.9011 8.64801 25.2421L11.108 25.953C13.78 16.7 22.37 10.238 31.998 10.238C43.563 10.238 53.024 19.315 53.692 30.717H51.197V33.2781H53.757H55.037H58.877V48.637H58.946C57.189 49.946 55.745 51.68 54.837 53.757H47.358V43.5181H16.638V76.798ZM44.798 76.798H19.198V46.078H44.798V53.7581H38.268C37.674 50.8411 35.088 48.6381 31.998 48.6381C28.47 48.6381 25.599 51.509 25.599 55.038C25.599 57.039 26.564 58.929 28.158 60.132V69.1171H35.839V63.9971H44.799V76.798H44.798ZM35.601 53.7581H28.393C28.924 52.2721 30.331 51.198 31.997 51.198C33.664 51.199 35.071 52.2721 35.601 53.7581ZM30.718 66.558V63.9971H33.279V66.558H30.718ZM58.877 69.118V76.7991H47.357V63.998H54.836C55.744 66.076 57.189 67.81 58.945 69.118H58.877ZM66.558 69.118C62.235 69.118 58.36 66.375 56.913 62.291L56.612 61.438H30.717V58.712L30.08 58.3411C29.271 57.8701 28.707 57.148 28.406 56.318H56.611L56.912 55.4661C58.358 51.3821 62.233 48.6381 66.557 48.6381C72.203 48.6381 76.795 53.2321 76.795 58.8781C76.795 64.524 72.203 69.118 66.558 69.118Z" fill="#02A54F"/>
</svg>
