<svg width="80" height="80" viewBox="0 0 80 80" fill="none" xmlns="http://www.w3.org/2000/svg">
<path d="M43.518 0H35.838V5.12H0V58.878H18.937L15.097 79.358H22.822L26.662 58.878H35.839V79.358H43.519V58.878H52.697L56.537 79.358H64.262L60.422 58.878H79.36V5.12H43.52V0H43.518ZM38.3979 2.56H40.959V5.121H38.3979V2.56ZM20.696 76.798H18.181L18.6609 74.238H21.175L20.696 76.798ZM21.656 71.679H19.141L21.54 58.878H24.056L21.656 71.679ZM40.959 76.798H38.3979V74.238H40.959V76.798ZM40.959 71.679H38.3979V58.878H40.959V71.679ZM55.301 58.878H57.816L60.215 71.679H57.7L55.301 58.878ZM60.695 74.238L61.175 76.798H58.659L58.179 74.238H60.695ZM76.797 7.67999V56.319H2.56V7.67999H76.797Z" fill="#02A54F"/>
<path d="M43.5179 35.8388H47.4649C48.0759 39.4658 51.2389 42.2388 55.0379 42.2388H57.5979V35.8388H63.9979V10.2388H15.3589V53.7588H43.5169V35.8388H43.5179ZM38.3979 12.7998H40.9589V17.9188H38.3979V12.7998ZM33.2779 12.7998H35.8379V17.9188H33.2779V12.7998ZM28.1579 12.7998H30.7189V17.9188H28.1579V12.7998ZM23.0389 12.7998H25.5989V17.9188H23.0389V12.7998ZM17.9189 12.7998H20.4789V17.9188H17.9189V12.7998ZM17.9189 20.4798H23.0389V23.0408H17.9189V20.4798ZM17.9189 25.5998H23.0389V28.1598H17.9189V25.5998ZM40.9589 51.1978H17.9189V35.8388H24.4249C25.0359 39.4658 28.1989 42.2388 31.9979 42.2388H34.5589V35.8388H40.9589V51.1978ZM40.9589 33.2788H31.9979V39.6778C29.1749 39.6778 26.8789 37.3818 26.8789 34.5588V33.2788H17.9189V30.7188H25.5989V20.4788H43.5179V12.7988H61.4379V33.2778H55.0389V39.6768C52.2159 39.6768 49.9189 37.3808 49.9189 34.5578V33.2778H42.2389H40.9589V33.2788Z" fill="#02A54F"/>
<path d="M58.8781 16.6399H46.0781V26.8799H58.8781V16.6399ZM56.3181 24.3189H48.6381V19.1999H56.3181V24.3189Z" fill="#02A54F"/>
<path d="M74.238 51.1978H71.678V53.7588H74.238V51.1978Z" fill="#02A54F"/>
<path d="M69.1171 51.1978H61.437V53.7588H69.1171V51.1978Z" fill="#02A54F"/>
<path d="M74.2371 46.0791H61.437V48.6391H74.2371V46.0791Z" fill="#02A54F"/>
</svg>
