<svg width="80" height="80" viewBox="0 0 80 80" fill="none" xmlns="http://www.w3.org/2000/svg">
<path d="M79.359 19.95L70.929 11.52H56.3199V10.88C56.3199 8.41 54.31 6.401 51.84 6.401C50.791 6.401 49.836 6.77905 49.072 7.38605L23.933 0.204041L23.8309 0H19.688L19.517 0.342041L0.958984 10.2401H0V15.359V16.639V23.038H12.799V25.5991H10.239V28.1591H12.799V33.2791H15.36V69.118H12.799V76.798H10.239V79.358H33.2789V76.798H30.718V69.118H28.158V33.2791H30.718V28.1591H33.2789V25.5991H30.718V23.038H47.358V28.158H51.198V51.1981H48.6379V58.8781H51.198V62.718C51.198 64.835 52.921 66.558 55.038 66.558C57.156 66.558 58.8779 64.835 58.8779 62.718V61.438H56.318V62.718C56.318 63.424 55.744 63.997 55.038 63.997C54.332 63.997 53.7579 63.424 53.7579 62.718V58.8781H56.319V51.1981H53.7579V28.158H57.598V23.038H79.358L79.359 19.95ZM49.92 10.88C49.92 9.821 50.781 8.96002 51.84 8.96002C52.899 8.96002 53.76 9.821 53.76 10.88V11.52H49.92V10.88ZM21.272 2.56104H22.25L24.8099 7.68005H18.713L21.272 2.56104ZM17.922 10.241H25.6019V12.801H17.922V10.241ZM20.48 28.16V30.72H15.361V28.16H20.48ZM15.361 25.6V23.039H20.48V25.6H15.361ZM17.922 40.959H23.041L17.922 44.799V40.959ZM23.041 48.639L17.922 52.48V48.639H23.041ZM23.041 56.319L17.922 60.16V56.319H23.041ZM17.922 63.998H23.041L17.922 67.8391V63.998ZM25.6019 65.278V69.119H20.481L25.6019 65.278ZM20.48 61.439L25.601 57.598V61.439H20.48ZM20.48 53.759L25.601 49.918V53.759H20.48ZM20.48 46.079L25.601 42.238V46.079H20.48ZM20.48 38.399L25.601 34.559V38.399H20.48ZM17.922 37.119V33.2791H23.041L17.922 37.119ZM20.48 20.48L25.601 16.639V20.48H20.48ZM17.922 15.36H23.041L17.922 19.201V15.36ZM17.54 4.30005L15.361 8.65704V15.359H7.68103V10.2401H6.40198L17.54 4.30005ZM2.56201 12.8H5.12195V15.36H2.56201V12.8ZM14.0809 20.48H12.801H2.56201V17.92H15.3619V20.48H14.0809ZM28.161 76.798H25.601V74.238H23.04V76.798H20.479V74.238H17.92V76.798H15.359V71.678H28.1589V76.798H28.161ZM28.161 30.7191H23.041V28.1591H28.161V30.7191ZM28.161 25.6H23.041V23.039H26.881H28.161V25.6ZM25.488 3.31104L47.562 9.61902C47.444 10.022 47.36 10.439 47.36 10.881V11.5211H32.6799L28.16 16.945V8.65906L25.488 3.31104ZM30.7209 20.48H28.547L33.881 14.0811H33.973L39.458 20.48H30.7209ZM42.828 20.48L37.344 14.0811H48.418L42.934 20.48H42.828ZM53.76 56.319H51.2V53.759H53.76V56.319ZM55.04 25.6H49.92V23.039H55.04V25.6ZM46.303 20.48L51.787 14.0811H51.892L57.376 20.48H46.303ZM60.7479 20.48L55.2629 14.0811H66.338L60.853 20.48H60.7479ZM64.223 20.48L69.707 14.0811H69.869L76.269 20.48H64.223Z" fill="#02A54F"/>
</svg>
