<svg width="80" height="80" viewBox="0 0 80 80" fill="none" xmlns="http://www.w3.org/2000/svg">
<path d="M66.547 16.438C66.49 14.252 65.518 12.295 63.998 10.93V0H53.758V10.93C52.238 12.295 51.266 14.252 51.207 16.438L50.5 19.2H17.816C17.191 14.864 13.464 11.52 8.95898 11.52C4.01998 11.52 0 15.54 0 20.479V61.438C0 66.377 4.01998 70.398 8.95898 70.398H38.58C39.045 72.189 40.447 73.59 42.238 74.057V79.358H44.799V74.057C47 73.484 48.639 71.496 48.639 69.118V68.001L52.957 51.198H55.037V56.319H62.717V51.198H64.797L69.117 68.001V69.118C69.117 71.497 70.754 73.484 72.957 74.057V79.358H75.518V74.057C77.719 73.484 79.358 71.496 79.358 69.118V66.397L75.46 51.198H79.358V48.639H74.803L66.547 16.438ZM56.318 2.55902H61.437V9.40698C60.6339 9.12398 59.777 8.96002 58.876 8.96002C57.978 8.96002 57.12 9.12398 56.317 9.40698V2.55902H56.318ZM58.877 11.52C61.701 11.52 63.998 13.815 63.998 16.639C63.998 19.463 61.701 21.759 58.877 21.759C56.055 21.759 53.758 19.463 53.758 16.639C53.758 13.815 56.055 11.52 58.877 11.52ZM2.55896 20.479C2.55896 16.951 5.42998 14.08 8.95898 14.08C12.488 14.08 15.3589 16.951 15.3589 20.479V55.18C13.7299 53.516 11.464 52.479 8.95898 52.479C6.45398 52.479 4.18796 53.516 2.55896 55.18V20.479ZM8.95898 67.838C5.42998 67.838 2.55896 64.967 2.55896 61.438C2.55896 57.91 5.42998 55.038 8.95898 55.038C12.488 55.038 15.3589 57.91 15.3589 61.438C15.3589 64.967 12.488 67.838 8.95898 67.838ZM38.437 66.241L38.416 67.839H15.217C16.881 66.211 17.918 63.944 17.918 61.439V21.76H49.844L47.412 31.236L40.939 28L21.156 38.551L22.361 40.811L24.318 39.767V65.28H38.685L38.437 66.241ZM46.764 33.772L45.907 37.119H29.28L40.977 30.88L46.764 33.772ZM39.34 62.718H26.879V39.678H45.248L42.951 48.639H38.3979V51.198H42.294L39.34 62.718ZM46.117 67.519L46.078 69.118C46.078 70.53 44.93 71.679 43.517 71.679C42.107 71.679 40.958 70.531 40.958 69.118V66.72L52.649 21.117C53.745 22.638 55.376 23.743 57.268 24.147L46.117 67.519ZM60.158 53.758H57.597V46.078H60.158V53.758ZM62.717 48.639V43.518H55.037V48.639H53.617L58.877 28.18L64.139 48.639H62.717ZM76.797 66.719V69.117C76.797 70.529 75.649 71.678 74.236 71.678C72.826 71.678 71.677 70.53 71.677 69.117V67.675L60.4839 24.147C62.3769 23.743 64.009 22.637 65.105 21.117L76.797 66.719Z" fill="#02A54F"/>
<path d="M7.67993 47.3579H5.1189V49.9189H7.67993V47.3579Z" fill="#02A54F"/>
<path d="M7.67993 25.5991H5.1189V44.7981H7.67993V25.5991Z" fill="#02A54F"/>
</svg>
