<svg width="59" height="77" viewBox="0 0 59 77" fill="none" xmlns="http://www.w3.org/2000/svg">
<path d="M42.7556 76.9401V60.8072H54.781C56.9908 60.8072 58.7894 59.1366 58.7894 57.0842V29.7836C58.7894 27.7311 56.9908 26.0608 54.781 26.0608C52.5711 26.0608 50.7725 27.7311 50.7725 29.7836C50.7725 30.2208 50.8686 30.6348 51.0189 31.0246H50.4624C49.2432 26.0577 44.4581 22.3377 38.7471 22.3377H36.936C39.6668 20.2882 41.4195 17.1576 41.4195 13.6509V12.4108V9.92786C41.4195 5.44965 37.7514 1.7529 33.0613 1.29238C32.6041 0.526456 31.7355 0 30.7313 0H28.0579C27.0527 0 26.1843 0.526456 25.7281 1.29238C21.037 1.75387 17.3688 5.44965 17.3688 9.92786V12.4108V13.6509C17.3688 17.1576 19.1225 20.2882 21.8522 22.3377H20.0422C14.3312 22.3377 9.54607 26.0577 8.32684 31.0246H7.7705C7.92081 30.6348 8.01681 30.2208 8.01681 29.7836C8.01681 27.7311 6.21827 26.0608 4.00841 26.0608C1.79854 26.0608 0 27.7311 0 29.7836V57.0842C0 59.1366 1.79854 60.8072 4.00841 60.8072H16.0337V76.9401H42.7556ZM28.0579 74.459H18.706V71.9761H28.0579V74.459ZM28.0579 69.494H18.706V60.8072H28.0579V69.494ZM40.0823 74.459H30.7303V71.9761H40.0823V74.459ZM40.0823 69.494H30.7303V60.8072H40.0823V69.494ZM54.7798 28.5426C55.5168 28.5426 56.115 29.0991 56.115 29.7836C56.115 30.468 55.5168 31.0246 54.7798 31.0246C54.0418 31.0246 53.4438 30.468 53.4438 29.7836C53.4438 29.0991 54.0418 28.5426 54.7798 28.5426ZM40.0823 24.9206C43.7128 25.4054 46.6753 27.8271 47.7056 31.0255H41.4195C40.6825 31.0255 40.0833 30.469 40.0833 29.7845L40.0823 24.9206ZM37.4111 24.8198V29.7836C37.4111 30.2208 37.5081 30.6348 37.6574 31.0246H31.4193L34.2825 24.8198H37.4111ZM33.4025 3.84801C36.4475 4.42584 38.7471 6.93108 38.7471 9.92786H33.4025V3.84801ZM28.0579 2.48297H30.7313V9.9288H28.0579V2.48297ZM28.0579 12.4108H30.7313H33.4037H36.1322C34.6197 13.074 32.4349 13.6509 29.3951 13.6509C26.3147 13.6509 24.1195 13.073 22.6142 12.4108H25.3867H28.0579ZM25.3857 3.84801V9.92786H20.0411C20.0411 6.93108 22.3408 4.42584 25.3857 3.84801ZM20.0557 13.9068C21.896 15.0052 24.8742 16.1339 29.3941 16.1339C33.913 16.1339 36.8933 15.0052 38.7326 13.9068C38.5844 18.5769 34.4569 22.3377 29.3941 22.3377C24.3314 22.3377 20.2028 18.5779 20.0557 13.9068ZM31.3755 24.8198L29.3941 29.1166L27.4118 24.8198H31.3755ZM21.3773 29.7836V24.8198H24.5047L27.3669 31.0246H21.1299C21.2802 30.6348 21.3773 30.2218 21.3773 29.7836ZM18.706 24.9206V29.7845C18.706 30.469 18.1068 31.0255 17.3688 31.0255H11.0837C12.1119 27.8271 15.0744 25.4054 18.706 24.9206ZM4.00841 28.5426C4.74537 28.5426 5.34344 29.0991 5.34344 29.7836C5.34344 30.468 4.74537 31.0246 4.00841 31.0246C3.27039 31.0246 2.67223 30.468 2.67223 29.7836C2.67223 29.0991 3.27039 28.5426 4.00841 28.5426ZM4.00841 58.3261C3.27039 58.3261 2.67223 57.7708 2.67223 57.0854V33.2777C3.09291 33.4173 3.53762 33.5066 4.00841 33.5066H8.01681H10.6902H48.1002H50.7735H54.782C55.2528 33.5066 55.6974 33.4164 56.117 33.2777V57.0854C56.117 57.7708 55.519 58.3261 54.782 58.3261H4.00841Z" fill="#02A54F"/>
<path d="M53.4438 53.3625H50.7715V55.8455H53.4438V53.3625Z" fill="#02A54F"/>
<path d="M53.4438 35.9888H50.7715V50.8795H53.4438V35.9888Z" fill="#02A54F"/>
</svg>
